<?xml version="1.0" standalone="no"?>
<!DOCTYPE svg PUBLIC "-//W3C//DTD SVG 20010904//EN"
 "http://www.w3.org/TR/2001/REC-SVG-20010904/DTD/svg10.dtd">
<svg version="1.0" xmlns="http://www.w3.org/2000/svg"
 width="1080.000000pt" height="1350.000000pt" viewBox="0 0 1080.000000 1350.000000"
 preserveAspectRatio="xMidYMid meet">

<g transform="translate(0.000000,1350.000000) scale(0.100000,-0.100000)"
fill="#000000" stroke="none">
<path d="M8460 12169 c-287 -32 -457 -254 -437 -573 3 -50 15 -120 26 -156 11
-36 21 -66 21 -67 0 -2 -11 -3 -25 -3 l-25 0 0 -1533 0 -1533 -234 -489 c-128
-270 -259 -544 -291 -610 -32 -66 -102 -212 -156 -325 -76 -161 -102 -206
-118 -208 -21 -3 -21 -2 -21 301 0 283 -1 305 -19 321 -17 15 -51 16 -409 10
-308 -6 -394 -5 -406 5 -14 12 -15 231 -15 1966 0 1938 0 1953 20 1978 36 46
49 94 49 175 0 68 -4 87 -31 140 -50 101 -129 149 -335 208 -146 40 -158 46
-179 77 -31 48 15 97 93 97 22 0 61 -12 93 -27 43 -23 61 -39 88 -85 l34 -58
103 0 104 0 0 185 0 185 -110 0 -110 0 0 -31 c0 -26 -3 -30 -17 -24 -111 47
-154 58 -254 63 -167 7 -280 -29 -360 -115 -56 -61 -73 -104 -73 -193 -1 -62
4 -85 27 -132 30 -61 84 -116 145 -147 21 -11 100 -38 176 -61 144 -43 180
-60 197 -92 15 -29 -13 -65 -62 -79 -85 -26 -187 24 -235 115 l-29 56 -107 0
-107 0 -3 -112 -3 -113 -27 -3 -28 -3 0 -1987 0 -1987 -1032 0 -1033 0 0 2042
0 2043 -31 0 c-18 0 -42 9 -55 19 -23 19 -24 24 -27 208 -4 219 3 256 50 272
17 6 39 11 49 11 18 0 19 10 19 125 l0 125 -326 -2 -327 -3 -67 -228 c-37
-125 -69 -229 -71 -232 -3 -2 -40 102 -83 231 l-78 234 -329 0 -329 0 0 -125
c0 -115 1 -125 19 -125 36 0 78 -22 90 -46 7 -16 11 -95 11 -220 0 -194 0
-195 -25 -219 -16 -17 -35 -25 -58 -25 l-34 0 -6 -122 c-4 -66 -7 -2022 -7
-4345 l0 -4223 805 0 805 0 2 333 3 332 1028 3 1027 2 0 -355 0 -355 470 0
470 0 2 353 3 352 795 2 795 3 18 21 c16 20 17 112 17 1626 0 1087 -3 1611
-10 1624 -10 18 -24 19 -213 20 -111 1 -248 4 -303 8 l-102 6 85 180 c47 99
198 418 336 710 l252 530 3 -2708 2 -2707 515 0 515 0 0 4345 c0 4004 -1 4345
-16 4345 -13 0 -15 6 -10 33 4 17 10 53 13 80 l6 47 -122 0 -121 0 0 -33 c0
-18 -10 -53 -22 -77 l-23 -45 -105 0 -104 0 -23 33 c-34 51 -46 132 -41 272 5
134 22 195 67 234 30 27 118 33 160 11 34 -17 70 -80 71 -122 0 -23 2 -23 120
-23 l120 0 0 185 0 185 -115 0 -115 0 0 -25 0 -24 -32 18 c-78 45 -187 63
-298 50z m-5626 -722 c-6 -40 -26 -57 -68 -57 -24 0 -25 -2 -28 -77 l-3 -78
-53 -3 c-43 -2 -53 0 -50 11 1 8 46 146 98 306 l95 291 7 -178 c4 -97 5 -194
2 -215z m-635 63 c50 -145 91 -268 91 -273 0 -4 -24 -7 -52 -5 l-53 3 -3 77
-3 77 -37 3 c-27 2 -40 9 -49 28 -21 41 -14 386 7 363 5 -4 49 -127 99 -273z
m3211 -4335 l0 -45 -127 -1 c-1699 -7 -1932 -6 -1937 8 -8 20 -7 68 1 76 3 4
469 7 1035 7 l1028 0 0 -45z m1698 -232 c1 -180 -1 -273 -8 -273 -6 0 -10 74
-10 208 0 172 -3 211 -16 230 l-15 22 -355 0 -354 0 0 38 c0 21 3 42 7 45 4 4
173 6 377 5 l371 -3 3 -272z m-1698 -91 l0 -187 -1027 -1 c-710 0 -1030 3
-1035 10 -10 14 -10 350 -1 359 3 4 469 7 1035 7 l1028 0 0 -188z m1588 2 l2
-181 -91 -6 c-116 -9 -522 -9 -543 -1 -14 5 -16 31 -16 183 0 98 3 181 7 184
4 4 149 6 322 5 l316 -3 3 -181z m-3483 -316 c-4 -24 -14 -81 -23 -128 l-17
-85 -65 0 -65 0 -3 114 c-1 63 0 121 2 128 4 9 30 13 91 13 l86 0 -6 -42z
m1887 -91 l-3 -133 -917 1 -917 2 3 24 c2 26 29 181 37 217 l5 22 898 0 897 0
-3 -133z m2476 -1429 l-3 -1562 -765 -1 -765 0 0 105 c0 65 4 104 10 103 6 -2
48 -17 95 -33 216 -79 475 -76 692 6 86 33 221 114 296 179 111 95 223 253
276 388 126 318 91 652 -96 937 -59 89 -188 222 -269 276 -91 60 -217 118
-314 144 -173 46 -408 35 -580 -27 -116 -41 -105 -45 -105 36 l0 71 430 0
c475 0 478 0 499 61 15 43 15 515 0 558 -6 17 -21 37 -33 44 -16 9 -130 12
-456 12 l-435 0 -3 119 c-1 66 0 126 2 133 4 11 149 13 766 13 l760 0 -2
-1562z m-3278 1041 c4 -120 9 -171 19 -183 12 -14 53 -16 397 -16 l384 0 0
-65 0 -65 -1025 0 -1025 0 0 250 0 250 623 -2 622 -3 5 -166z m2595 -79 l0
-245 -420 0 -420 0 -3 235 c-1 129 0 240 3 247 3 11 90 13 422 11 l418 -3 0
-245z m-1795 105 l0 -135 -352 2 -353 3 -3 119 c-1 66 0 126 2 133 4 10 76 13
356 13 l350 0 0 -135z m0 -752 l0 -306 -381 6 c-248 4 -388 3 -400 -4 -18 -9
-19 -29 -19 -434 0 -405 1 -425 19 -434 12 -7 152 -8 400 -4 l381 6 0 -354 0
-354 -1027 0 -1028 0 -3 63 -3 63 103 -7 c413 -27 800 191 982 553 78 156 100
256 100 453 1 200 -16 277 -99 445 -163 334 -482 542 -860 562 -60 3 -134 1
-162 -4 l-53 -10 0 33 0 34 1025 0 1025 0 0 -307z m-1693 151 c198 -41 368
-142 509 -304 71 -81 164 -239 164 -278 0 -44 -98 -141 -130 -130 -7 2 -24 36
-39 75 -84 215 -284 391 -510 448 -71 18 -219 24 -298 12 l-53 -8 0 95 c0 112
-14 103 163 105 74 0 146 -5 194 -15z m3308 -14 c171 -46 322 -139 448 -275
96 -104 177 -241 177 -298 0 -32 -34 -78 -77 -104 -46 -28 -73 -30 -73 -5 0 9
-23 64 -51 120 -86 177 -242 312 -434 377 -79 26 -223 38 -317 25 -94 -13
-217 -56 -288 -99 -27 -17 -51 -27 -53 -23 -2 4 -1 54 2 112 l6 104 80 32
c129 52 201 64 360 60 102 -3 162 -10 220 -26z m-3331 -260 c107 -27 188 -73
273 -153 85 -81 134 -152 168 -242 l25 -65 -199 0 -198 0 -36 33 c-84 80 -210
101 -314 52 l-53 -24 0 199 0 200 28 6 c15 3 32 7 37 9 35 12 201 3 269 -15z
m3238 4 c221 -57 400 -217 473 -423 l14 -41 -198 0 -198 0 -24 26 c-13 14 -44
38 -69 52 -40 24 -56 27 -135 27 -102 0 -145 -15 -200 -72 l-33 -34 -103 3
-104 3 -3 149 -3 149 41 38 c47 45 162 103 246 123 81 20 218 20 296 0z
m-1522 -499 l0 -235 -218 0 c-121 0 -280 3 -355 7 l-137 6 0 229 0 228 355 0
355 0 0 -235z m-1774 35 c38 -24 84 -85 84 -112 0 -17 -15 -18 -180 -18 l-180
0 0 34 c0 41 33 79 92 107 54 25 133 20 184 -11z m3222 14 c57 -24 122 -94
122 -134 0 -6 -64 -10 -190 -10 -145 0 -190 3 -190 13 0 20 43 84 70 105 55
42 126 52 188 26z m-2413 -179 c0 -90 -3 -166 -7 -170 -3 -3 -27 9 -52 29 -25
19 -62 40 -81 47 l-35 13 0 82 0 83 59 32 c33 17 68 40 77 50 32 36 39 7 39
-166z m3258 134 c9 -49 4 -315 -6 -325 -3 -4 -20 6 -38 20 -18 15 -54 38 -80
52 l-49 24 0 93 0 94 50 23 c27 13 59 34 72 47 29 31 41 25 51 -28z m-3525
-131 l3 -68 -184 0 -184 0 -1 70 0 70 181 -2 182 -3 3 -67z m2332 -8 l0 -80
-75 0 -75 0 0 80 0 80 75 0 75 0 0 -80z m928 3 l3 -73 -183 0 -184 0 0 75 0
75 181 -2 180 -3 3 -72z m-3718 -65 c0 -7 -12 -30 -27 -52 -30 -42 -108 -86
-153 -86 -81 0 -180 67 -180 121 l0 29 180 0 c133 0 180 -3 180 -12z m3253 -7
c-15 -59 -116 -131 -184 -131 -33 0 -99 26 -130 52 -17 14 -59 78 -59 91 0 4
85 7 189 7 180 0 189 -1 184 -19z m-2817 -108 c-4 -16 -25 -66 -48 -113 -33
-67 -59 -102 -127 -171 -98 -99 -187 -149 -313 -175 -80 -17 -242 -15 -290 5
l-28 11 0 195 c0 107 2 195 4 195 2 0 28 -11 58 -25 79 -37 165 -35 245 5 34
17 73 46 88 65 l26 35 196 0 195 0 -6 -27z m2435 -19 c50 -53 121 -84 194 -84
85 0 128 15 190 66 l55 44 195 0 195 0 -21 -52 c-74 -189 -223 -332 -413 -395
-70 -24 -97 -28 -201 -28 -100 0 -132 4 -194 25 -80 26 -213 106 -230 139 -12
21 -16 303 -4 314 3 4 50 7 103 7 l96 0 35 -36z m-2269 -6 c76 -53 85 -105 37
-201 -118 -234 -336 -417 -581 -488 -82 -24 -314 -37 -383 -22 l-40 9 -3 92
-3 93 63 -8 c168 -21 307 1 458 75 163 79 305 242 361 415 24 74 32 77 91 35z
m513 -58 l0 -75 -67 -3 -68 -3 0 81 0 81 68 -3 67 -3 0 -75z m275 0 l0 -80
-90 0 -90 0 0 80 0 80 90 0 90 0 0 -80z m265 0 l0 -75 -90 0 -90 0 -3 64 c-4
94 -6 92 95 89 l88 -3 0 -75z m2184 60 c73 -37 103 -97 81 -159 -48 -136 -196
-309 -350 -412 -154 -102 -347 -154 -545 -146 -66 3 -147 12 -180 21 -64 17
-182 63 -202 79 -13 10 -19 217 -7 217 3 0 32 -16 63 -35 196 -121 483 -135
685 -33 203 102 320 241 399 471 8 21 9 21 56 -3z"/>
<path d="M7122 6489 c-41 -16 -38 -90 6 -101 29 -8 61 9 68 36 12 48 -27 82
-74 65z"/>
<path d="M6394 6465 c-15 -23 -15 -27 0 -51 23 -33 64 -30 85 8 14 24 14 28
-3 47 -26 29 -62 27 -82 -4z"/>
<path d="M6636 6474 c-32 -31 -8 -84 38 -84 29 0 46 18 46 50 0 14 -5 31 -12
38 -17 17 -54 15 -72 -4z"/>
<path d="M6871 6476 c-18 -21 -9 -66 14 -82 29 -19 69 2 73 39 4 36 -13 57
-48 57 -15 0 -33 -6 -39 -14z"/>
<path d="M7468 6150 c-70 -38 -115 -126 -104 -204 26 -174 236 -236 353 -103
30 34 58 120 49 149 -3 7 -7 25 -10 40 -8 37 -60 95 -107 119 -50 25 -132 25
-181 -1z m181 -107 c30 -32 33 -39 28 -81 -15 -131 -198 -138 -222 -9 -9 47
17 95 65 120 47 23 87 14 129 -30z"/>
<path d="M4151 6108 c-128 -66 -95 -252 47 -266 152 -14 217 169 91 259 -41
30 -89 33 -138 7z m105 -103 c15 -23 15 -27 0 -50 -9 -14 -26 -25 -38 -25 -25
0 -58 27 -58 47 0 54 66 74 96 28z"/>
<path d="M3804 6111 c-27 -12 -72 -66 -80 -97 -24 -95 69 -189 169 -170 77 14
128 97 108 172 -17 62 -60 97 -123 101 -29 1 -62 -1 -74 -6z m96 -91 c24 -24
25 -47 3 -72 -18 -20 -63 -24 -81 -6 -29 29 -1 98 40 98 10 0 27 -9 38 -20z"/>
<path d="M3466 6014 c-19 -18 -21 -55 -4 -72 7 -7 24 -12 38 -12 34 0 50 17
50 52 0 43 -53 64 -84 32z"/>
<path d="M6456 6114 c-19 -18 -20 -38 -6 -65 12 -22 59 -26 78 -7 19 19 15 66
-7 78 -27 14 -47 13 -65 -6z"/>
<path d="M6696 6114 c-19 -18 -21 -55 -4 -72 7 -7 24 -12 38 -12 14 0 31 5 38
12 28 28 2 88 -38 88 -10 0 -26 -7 -34 -16z"/>
<path d="M6925 6106 c-19 -29 -6 -71 25 -81 29 -9 70 19 70 50 0 53 -66 75
-95 31z"/>
<path d="M6420 5898 c-36 -19 -39 -62 -5 -84 34 -22 122 -15 142 12 30 41 4
75 -63 81 -29 2 -59 -2 -74 -9z"/>
<path d="M6674 5900 c-25 -10 -34 -37 -23 -67 13 -36 117 -44 156 -12 20 17
16 56 -9 73 -24 17 -90 20 -124 6z"/>
<path d="M6927 5892 c-43 -48 -7 -92 76 -92 62 0 87 16 87 55 0 39 -25 55 -89
55 -43 0 -62 -5 -74 -18z"/>
<path d="M4504 9767 c4 -40 9 -88 12 -107 l5 -36 -39 4 c-33 3 -42 0 -61 -23
-25 -33 -26 -46 -6 -85 18 -34 56 -47 91 -31 40 18 47 48 37 150 l-9 92 28 -6
c15 -4 44 -1 63 5 33 11 35 14 35 54 0 24 -3 45 -6 48 -3 3 -19 -1 -37 -10
-28 -14 -35 -14 -75 0 l-44 16 6 -71z"/>
<path d="M4370 9815 c-33 -40 -118 -57 -175 -35 -23 9 -26 8 -21 -7 19 -67 78
-270 81 -279 2 -6 -8 -9 -26 -6 -87 13 -146 -77 -104 -158 29 -57 102 -68 154
-24 46 38 47 71 6 208 -19 66 -35 122 -35 125 0 3 20 7 44 8 55 2 126 37 125
61 0 9 -8 41 -17 71 -16 50 -18 53 -32 36z"/>
<path d="M3338 2058 l-147 -343 30 -3 c25 -3 28 -6 23 -28 -6 -23 -4 -24 37
-24 56 0 64 6 88 63 l20 47 179 0 180 0 12 -30 c7 -16 18 -30 25 -30 7 0 19
-9 26 -20 10 -15 30 -22 66 -27 l53 -6 -111 254 c-60 140 -128 298 -151 352
-23 53 -48 97 -55 97 -7 0 -17 9 -23 20 -8 16 -21 20 -58 20 l-47 0 -147 -342z
m295 -13 l54 -130 -115 -3 c-63 -1 -117 -1 -119 2 -2 2 22 65 54 140 31 75 60
132 64 128 4 -4 32 -65 62 -137z"/>
<path d="M5060 2355 c0 -41 2 -45 25 -45 20 0 25 -5 25 -25 l0 -25 105 0 105
0 0 -274 0 -275 23 -3 c14 -2 23 -11 25 -25 3 -20 9 -23 53 -23 l49 0 0 300 0
300 125 0 125 0 0 50 c0 43 -3 50 -20 50 -13 0 -20 7 -20 20 0 20 -7 20 -310
20 l-310 0 0 -45z"/>
<path d="M7060 2055 l0 -345 25 0 c20 0 25 -5 25 -25 0 -23 3 -25 50 -25 l50
0 0 150 0 151 121 -3 122 -3 50 -122 c31 -78 55 -123 64 -123 8 0 17 -9 20
-19 4 -15 17 -21 59 -27 30 -3 57 -4 59 -2 3 2 -22 70 -55 151 -33 81 -60 150
-60 155 1 4 18 19 39 33 42 30 81 101 81 150 0 57 -23 110 -69 162 -75 83 -90
87 -353 87 l-228 0 0 -345z m492 180 c15 -34 0 -83 -35 -109 -26 -19 -42 -21
-165 -21 l-137 0 -3 64 c-2 35 -1 70 2 77 4 11 40 14 166 14 l160 0 12 -25z"/>
<path d="M2837 2353 c-4 -3 -7 -150 -7 -325 l0 -318 -30 0 c-25 0 -30 -4 -30
-25 0 -24 3 -25 55 -25 l55 0 0 350 c0 333 -1 350 -18 350 -10 0 -22 -3 -25
-7z"/>
<path d="M4730 2335 l0 -24 -127 -3 -128 -3 -3 -297 -2 -298 -30 0 c-25 0 -30
-4 -30 -25 0 -23 3 -25 50 -25 l50 0 0 300 0 300 130 0 130 0 0 50 c0 43 -3
50 -20 50 -15 0 -20 -7 -20 -25z"/>
<path d="M6667 2353 c-4 -3 -7 -15 -7 -24 0 -17 -16 -19 -242 -21 l-243 -3 -3
-97 c-3 -93 -2 -98 18 -98 18 0 20 6 20 75 l0 75 250 0 250 0 0 50 c0 42 -3
50 -18 50 -10 0 -22 -3 -25 -7z"/>
<path d="M8587 2353 c-4 -3 -7 -15 -7 -25 0 -17 -12 -18 -167 -18 -182 0 -234
-9 -258 -43 -21 -30 -19 -99 4 -128 l18 -22 5 47 c4 30 14 56 27 70 20 20 33
21 221 24 l200 3 0 50 c0 41 -3 49 -18 49 -10 0 -22 -3 -25 -7z"/>
<path d="M4157 2304 c-4 -4 -7 -16 -7 -26 0 -16 10 -18 106 -18 104 0 105 0
102 23 -3 21 -8 22 -98 25 -53 1 -99 0 -103 -4z"/>
<path d="M2240 1960 l0 -250 -36 0 c-31 0 -35 -3 -32 -22 3 -20 10 -23 56 -26
l52 -3 0 263 c0 252 -1 264 -20 276 -20 12 -20 10 -20 -238z"/>
<path d="M2597 2100 c-113 -109 -117 -113 -100 -132 9 -10 22 -17 29 -16 7 2
53 43 104 91 88 86 91 90 88 129 l-3 41 -118 -113z"/>
<path d="M6660 2035 l0 -25 -245 0 -245 0 0 -100 c0 -93 1 -100 20 -100 18 0
20 7 20 75 l0 75 245 0 245 0 0 50 c0 43 -3 50 -20 50 -15 0 -20 -7 -20 -25z"/>
<path d="M8124 2022 c4 -7 26 -22 49 -34 35 -18 63 -23 172 -26 72 -2 141 -2
155 0 l25 3 -29 20 c-26 17 -53 21 -185 26 -86 3 -165 9 -175 14 -14 6 -17 5
-12 -3z"/>
<path d="M8631 1978 c30 -105 -14 -206 -106 -249 -35 -16 -67 -19 -242 -19
l-203 0 0 -26 0 -26 228 4 c254 4 274 9 329 71 59 68 66 164 17 240 -30 46
-35 47 -23 5z"/>
<path d="M6660 1735 l0 -25 -280 0 -280 0 0 -25 0 -25 305 0 305 0 0 50 c0 47
-2 50 -25 50 -20 0 -25 -5 -25 -25z"/>
</g>
</svg>
